<mxfile host="app.diagrams.net" modified="2020-05-01T16:16:13.607Z" agent="5.0 (Windows)" etag="ZvFKW_q3aceS3dZdnGQi" version="13.0.5" type="github">
  <diagram id="BlYRpKxUsWNKGSEtVPkD" name="Page-1">
    <mxGraphModel dx="1422" dy="791" grid="1" gridSize="10" guides="1" tooltips="1" connect="1" arrows="1" fold="1" page="1" pageScale="1" pageWidth="850" pageHeight="1100" math="0" shadow="0">
      <root>
        <mxCell id="0" />
        <mxCell id="1" parent="0" />
        <mxCell id="j7GRl7fEdaeMKXFeyTEX-1" value="" style="ellipse;whiteSpace=wrap;html=1;aspect=fixed;" vertex="1" parent="1">
          <mxGeometry x="380" y="360" width="80" height="80" as="geometry" />
        </mxCell>
      </root>
    </mxGraphModel>
  </diagram>
</mxfile>
